<svg xmlns="http://www.w3.org/2000/svg" height="768" width="1024"><g style="font-style:normal;font-weight:400;font-size:72px;line-height:1;font-family:&quot;Brandmark Sans 11 Color Shadow&quot;;font-variant-ligatures:normal;text-align:center;text-anchor:middle"><g aria-label="f"><path class="c1" d="M374.848 363.477H306.42v25.55h15.786v65.81h27.68v-65.81h24.962zM374.846 338.517v-27.68c-29.024 0-52.64 23.615-52.64 52.64h27.68c0-13.763 11.198-24.96 24.96-24.96z"/></g><path class="c1" d="M509.826 401.328c0-30.126-24.51-54.636-54.636-54.636-30.128 0-54.638 24.51-54.638 54.636 0 30.128 24.51 54.638 54.638 54.638a54.278 54.278 0 0 0 27.21-7.29v6.31h27.426v-53.148h-.013c.002-.17.013-.339.013-.51zM455.19 428.54c-15.004 0-27.213-12.209-27.213-27.213s12.209-27.211 27.213-27.211 27.21 12.206 27.21 27.21-12.206 27.214-27.21 27.214z" aria-label="a"/><path class="c1" d="M574.272 455.031h-27.706v-144h27.706v144z" aria-label="l"/><path class="c1" d="M716.576 401.328c0-30.126-24.51-54.636-54.636-54.636-30.128 0-54.638 24.51-54.638 54.636 0 30.128 24.51 54.638 54.638 54.638a54.278 54.278 0 0 0 27.21-7.29v6.31h27.426v-53.148h-.013c.002-.17.013-.339.013-.51zM661.94 428.54c-15.004 0-27.213-12.209-27.213-27.213s12.209-27.211 27.213-27.211 27.21 12.206 27.21 27.21-12.206 27.214-27.21 27.214z" aria-label="a"/></g></svg>